<svg width="0" height="0" class="hidden">
  <symbol fill="#FFF" xmlnsDc="http://purl.org/dc/elements/1.1/" xmlnsCc="http://creativecommons.org/ns#" xmlnsRdf="http://www.w3.org/1999/02/22-rdf-syntax-ns#" xmlnsSvg="http://www.w3.org/2000/svg" xmlns="http://www.w3.org/2000/svg" xmlnsSodipodi="http://sodipodi.sourceforge.net/DTD/sodipodi-0.dtd" xmlnsInkscape="http://www.inkscape.org/namespaces/inkscape" version="1.0" id="Ephipone_logo" sodipodiVersion="0.32" inkscapeVersion="0.46" sodipodiDocname="Epiphone Logo.svg" inkscapeOutput_extension="org.inkscape.output.svg.inkscape" viewBox="0 0 973 324">
    <metadata id="metadata13">
      <rdf:RDF>
        <cc:Work rdfAbout="">
          <dc:format>image/svg+xml</dc:format>
          <dc:type rdfResource="http://purl.org/dc/dcmitype/StillImage"></dc:type>
        </cc:Work>
      </rdf:RDF>
    </metadata>
    <defs id="defs11">
      <inkscape:perspective sodipodiType="inkscape:persp3d" inkscapeVp_x="0 : 202.5 : 1" inkscapeVp_y="0 : 1000 : 0" inkscapeVp_z="1216.25 : 202.5 : 1" inkscapePersp3dOrigin="608.125 : 135 : 1" id="perspective15"></inkscape:perspective>
    </defs>
    <sodipodi:namedview inkscapeWindowHeight="669" inkscapeWindowWidth="640" inkscapePageshadow="2" inkscapePageopacity="0.0" guidetolerance="10.0" gridtolerance="10.0" objecttolerance="10.0" borderopacity="1.0" bordercolor="#666666" pagecolor="#ffffff" id="base" showgrid="false" inkscapeZoom="0.44727646" inkscapeCx="608.125" inkscapeCy="202.5" inkscapeWindowX="161" inkscapeWindowY="95" inkscapeCurrentLayer="svg2"></sodipodi:namedview>
    <g id="#ffffffff"></g>
    <g id="#010101ff">
      <path d="M 592.5,0 L 611.42,0 C 614.16,0.25 616.91,0.4 619.66,0.62 C 614.9,19.36 608.83,37.74 603.28,56.26 C 596.61,77.79 589.95,99.31 582.93,120.73 C 590.31,117.16 597.89,114 605.72,111.54 C 614.54,108.8 623.55,105.47 632.95,106.45 C 635.55,106.25 637.93,108.05 638.77,110.47 C 641.7,117.41 639.59,124.94 639.23,132.12 C 646.6,130.43 650.58,123.53 655.67,118.65 C 663.6,111.73 673.61,107.18 684.02,105.65 C 691.32,105.02 699.41,105.15 705.63,109.49 C 707.13,111.63 706.63,115 705.03,117.03 C 699.9,119.39 693.8,118.89 688.9,121.87 C 687.15,123.51 686.92,126.11 686.12,128.25 C 680.1,148.35 673.73,168.37 668.5,188.69 C 667.14,192.61 668.63,198.04 673.08,199.03 C 677.81,199.21 682.71,199.67 687.36,198.54 C 691.23,195.28 692.87,190.23 694.96,185.78 C 702.72,164.67 707.35,142.6 712.62,120.78 C 713.25,118.31 713.7,115.8 714.04,113.28 C 712.25,112.04 710.41,110.66 710,108.38 C 715.43,105.17 722.11,104.36 728.18,105.96 C 732.54,107.53 736.31,110.32 740,113.07 C 742.76,115.04 743.69,118.84 742.99,122.05 C 740.33,139.35 733.97,155.82 730.77,173 C 730.17,175.99 733.97,175.88 735.96,175.76 C 745.21,174.8 753.89,170.64 761.46,165.39 C 764.3,163.7 765.3,160.42 766.25,157.47 C 770.12,144.33 773.14,130.97 776.6,117.72 C 777.59,113.88 778.79,110.09 780.45,106.49 C 790.06,105.01 800.04,104.77 809.62,106.58 C 809.53,112 806.51,116.64 805.05,121.71 C 812.36,120.37 818.71,116.32 825.51,113.57 C 833.73,110.14 842.32,106.11 851.47,107.2 C 856.09,107.38 860.89,110.4 861.8,115.18 C 863.71,122.07 860.08,128.6 858.95,135.25 C 864.33,134.92 870.01,132.72 873.36,128.34 C 876.44,121.76 877.52,114.02 882.54,108.48 C 884.1,106.58 886.67,106.43 888.92,106.07 C 900.21,104.57 911.62,104.26 923,104.31 C 935.86,104.28 948.77,104.27 961.56,105.86 C 964.12,106.2 967.1,107.19 967.84,110.01 C 969.39,115.03 968.74,120.49 967.27,125.46 C 963.71,138.11 960.7,150.94 956.45,163.39 C 955.8,164.65 955.55,166.76 953.81,166.91 C 944.61,168.28 935.28,168.28 926,168.4 C 916.89,168.57 907.75,167.65 898.68,168.74 C 894.78,176.68 891.85,185.18 890.72,193.98 C 890.47,197.25 890.5,201.83 894.12,203.29 C 901.59,205.36 909.74,204.19 916.6,200.68 C 921.62,198.19 925.36,193.87 929.09,189.81 C 935.29,189.75 941.51,189.31 947.7,189.94 C 946.61,196.25 943.83,202.13 940.49,207.54 C 939.06,209.62 937.61,211.85 935.42,213.18 C 930.01,214.26 924.46,214.06 918.98,214.25 C 901.29,214.37 883.54,214.61 865.92,212.85 C 861.91,212.62 857.61,210.91 855.94,206.98 C 853.84,201.5 854.8,195.43 855.87,189.82 C 859.55,175.7 865.63,162.32 869.16,148.15 C 869.59,146.38 869.76,144.56 869.94,142.75 C 864.05,145.71 858.44,149.42 853.29,153.5 C 849.51,163.32 846.9,173.59 843.54,183.58 C 832.3,219.37 821.13,255.19 809.91,290.99 C 809.28,292.75 809.29,294.63 809.35,296.48 C 811.14,297.05 813.01,298.05 814.94,297.36 C 817.44,297.05 818.42,294.52 819.51,292.61 C 821.24,289.48 822.49,286.11 823.92,282.84 C 828.49,281.79 833.39,282.65 838.09,282.47 C 837.52,286.79 835.27,290.59 833.33,294.4 C 829.22,301.84 824.93,309.2 820.06,316.17 C 818.68,318.07 817.36,320.1 815.46,321.52 C 811.67,323.26 807.39,323.29 803.35,324 L 786.54,324 C 780.72,323.48 774.87,323.14 769.14,321.92 C 769.6,316.64 771.26,311.58 772.66,306.5 C 787.31,256.52 804.12,207.22 819.24,157.39 C 820.52,152.01 823.03,146.81 822.88,141.18 C 818.7,140.03 814.48,141.42 810.48,142.6 C 806.21,144.09 801.89,145.67 798.07,148.14 C 796.34,149.19 795.79,151.27 795.09,153.03 C 789.62,170.89 785.46,189.14 779.85,206.96 C 778.85,209.02 778.52,212.4 775.68,212.64 C 767.08,214.39 757.92,214.76 749.46,212.14 C 750.35,201.28 755.12,191.3 757.98,180.9 C 748.01,187.06 736.41,190.42 724.72,190.86 C 721.52,196.98 720.8,205.65 713.69,208.68 C 705.4,212.58 695.94,212.02 687.02,212.67 C 674.68,213.7 662.34,212.57 649.99,212.35 C 647.56,212.23 644.52,212.25 643.18,209.81 C 639.9,204.54 636.28,198.57 637.44,192.09 C 638.84,182.58 641.93,173.43 644.31,164.14 C 646.18,156.82 648.74,149.59 649.3,142.01 C 644.97,146.32 639.83,150.13 633.5,150.57 C 625.61,170.73 621.48,192.16 613.66,212.35 C 602.32,213.91 590.66,214.01 579.36,212.15 C 579.53,204.84 581.85,197.84 583.73,190.84 C 587.59,176.47 592.15,162.29 595.81,147.87 C 597.04,143.18 598.36,138.45 598.31,133.57 C 592.77,133.98 587.55,136.1 582.72,138.71 C 579.4,140.61 575.9,142.94 574.61,146.76 C 569.65,160.13 566.56,174.09 562.49,187.74 C 560.27,195.03 558.54,202.51 555.37,209.47 C 554.5,212.1 551.41,212.21 549.11,212.53 C 540.73,213.44 532.16,213.76 523.84,212.18 C 524.88,202.06 530.17,192.89 531.02,182.73 C 522.35,186.04 513.81,190.92 504.22,190.51 C 502.15,196.78 500.23,203.59 495.16,208.16 C 490.48,212.29 483.93,212.85 477.99,213.18 C 467.26,213.38 456.55,212.56 445.83,212.51 C 444.72,214.91 443.72,217.36 442.97,219.9 C 435.19,244.8 428.34,269.97 420.91,294.98 C 418.08,303.81 415.73,312.8 412.27,321.42 C 400.82,322.94 389.16,322.71 377.64,322.16 C 378.94,311.88 382.57,302.09 385.26,292.13 C 398.37,247.91 413.3,204.26 426.57,160.09 C 410.13,176.92 392.64,193 372.77,205.73 C 367.47,208.83 361.67,212.62 355.23,211.57 C 351.82,210.87 347.39,209.28 347.48,205.06 C 347.46,197.18 350.65,189.79 352.9,182.37 C 344.58,186.49 335.76,190.77 326.24,190.49 C 323.77,197.97 321.09,206.72 313.36,210.35 C 305.07,213.86 295.77,212.92 287,212.67 C 280.3,212.67 273.6,212.11 266.91,212.44 C 265.11,213.99 264.71,216.55 263.82,218.65 C 252.73,252.64 244.18,287.4 233.46,321.5 C 225.04,322.78 216.48,322.38 208,322.56 C 204.52,322.39 200.91,322.87 197.54,321.88 C 197.35,318.34 198.85,314.98 199.67,311.6 C 208.9,280.57 219.49,249.97 229.41,219.16 C 231.19,213.11 233.29,207.15 234.79,201.01 C 209.69,208.99 184.3,216.68 158.05,219.78 C 136.85,222.41 114.69,222.22 94.42,214.77 C 84.09,210.96 74.72,204.78 66.61,197.39 C 51.35,181.13 46.61,158.36 43.33,137.03 C 42.32,132.24 42.85,126.88 40.37,122.54 C 35.95,120.43 30.78,120.98 26,120.83 C 17.33,120.94 8.67,120.51 0,120.67 L 0,118.43 C 1.35,114.23 2.81,109.91 5.9,106.64 C 13.6,106.73 21.3,106.42 29,106.55 C 33.89,106.38 39.18,107.24 43.62,104.65 C 46.74,103.22 47.41,99.58 48.7,96.76 C 56.27,79.08 65.7,62 78.38,47.43 C 89.75,33.74 104.27,22.57 120.72,15.69 C 138.11,8.31 157.35,6.96 176.02,7.7 C 206.63,10.38 235.65,23.64 259.96,42.07 C 256.4,46.8 251.69,50.48 246.91,53.88 C 244.88,55.16 242.74,56.65 240.25,56.68 C 238.55,56.27 237.14,55.17 235.65,54.32 C 227.63,49.11 218.72,45.49 210.59,40.46 C 191.48,29.24 167.89,24.24 146.27,30.41 C 134.17,33.56 124.61,42.43 116.83,51.82 C 105.96,65.34 97.68,80.97 92.74,97.61 C 91.18,101.43 93.95,106.3 98.09,106.53 C 145.67,106.65 193.26,106.39 240.84,106.66 C 238.04,111.47 235.15,116.26 231.78,120.71 C 187.16,120.61 142.55,120.7 97.93,120.66 C 93.86,120.3 91.09,124.12 89.36,127.3 C 86.04,135.64 87.66,145.31 92.04,152.96 C 101.4,170.96 117.41,185.51 136.54,192.46 C 160.88,201.56 188.19,200.37 212.81,192.95 C 221.95,190.37 230.68,186.5 239.01,181.97 C 242.05,180.48 241.76,176.6 242.75,173.84 C 247.8,155.59 253.58,137.53 259.92,119.69 C 261.66,115.58 262.64,111 265.41,107.43 C 268.02,106.06 271.12,106.5 273.97,106.23 C 281.97,106.21 290.06,106.09 297.95,107.62 C 298.01,113.06 295.82,118.14 294.46,123.32 C 287.57,146.67 279.64,169.71 273.05,193.16 C 272.32,195.67 271.86,198.26 271.68,200.88 C 276.82,201.42 282.39,202.58 287.29,200.35 C 289.5,197.19 290.24,193.28 291.56,189.71 C 299.11,164.98 305.43,139.89 312.02,114.9 C 313.24,111.01 310.3,107.9 307.48,105.74 C 313.92,101.91 321.77,102.33 329,102.14 C 332.15,102.33 335.81,101.43 338.48,103.62 C 342.18,106.4 344.34,111.31 343.18,115.91 C 340.18,133.97 334.73,151.51 330.49,169.3 C 330.23,170.73 330.15,172.18 330.07,173.64 C 332.88,174.56 335.83,175.85 338.83,175.01 C 345.96,173.54 351.01,167.78 355.43,162.42 C 359.13,158.26 359.48,152.45 361.09,147.35 C 364.54,135.27 367.73,123.08 372.38,111.39 C 373.35,109.61 373.91,106.74 376.38,106.62 C 385.48,104.94 394.82,105.35 404.02,105.73 C 405.37,106.12 407.5,105.68 408.2,107.2 C 407.61,113.54 405.46,119.61 403.75,125.71 C 400.62,136.01 397.53,146.33 394.64,156.71 C 393.71,159.92 393.19,163.24 393.05,166.59 C 395.16,165.63 397.17,164.46 399.01,163.05 C 409.39,155.15 419.3,146.65 429.37,138.35 C 431.13,136.83 433.22,135.37 433.97,133.04 C 436.72,125.57 438.36,117.73 441.44,110.37 C 442.08,108.9 442.93,107.26 444.67,106.91 C 449.99,105.53 455.54,105.55 461.01,105.49 C 466.61,105.53 472.3,105.26 477.79,106.66 C 477.35,109.44 476.79,112.19 475.97,114.88 C 469.18,137.85 461.23,160.45 454.09,183.31 C 452.39,189.09 450.29,194.8 449.64,200.82 C 454.9,201.6 460.38,202.23 465.54,200.53 C 469.11,192.84 470.94,184.51 473.56,176.48 C 479.21,156.03 484.78,135.54 489.97,114.97 C 491.38,111.12 488.21,108.13 485.68,105.77 C 489.54,103.07 494.35,102.72 498.9,102.35 C 503.85,102.16 508.86,101.87 513.8,102.35 C 519.2,104.14 522.65,110.48 521.29,116.01 C 518.66,130.77 514.64,145.23 510.91,159.73 C 509.77,164.3 508.15,168.82 508.06,173.58 C 511.62,175.02 515.64,176.07 519.32,174.33 C 526.66,171.26 532.19,164.82 536.22,158.15 C 543.01,139.68 548.91,120.89 555.22,102.24 C 566.1,68.65 577.56,35.23 587.66,1.4 C 588.99,0.3 590.88,0.41 592.5,0 M 911.32,126.01 C 908.73,135.18 903.1,143.94 904.52,153.82 C 904.89,155.26 905.22,157.6 907.16,157.56 C 911.98,158.08 916.83,157.61 921.67,157.54 C 924.45,150.69 926.25,143.5 928.19,136.39 C 929.07,132.4 930.62,128.53 930.73,124.41 C 926.71,122.62 922.21,123.33 917.95,123.07 C 915.55,123.26 911.75,122.76 911.32,126.01 z" id="path6"></path>
      <path d="M 395.48,23.69 C 408.22,18.73 424.17,27.22 426.4,40.89 C 429.86,54.5 418.21,69.6 404.02,68.85 C 391.41,70.07 379.77,58.48 380.16,46 C 379.69,36.27 386.34,26.88 395.48,23.69 z" id="path8"></path>
    </g>
  </symbol>
  <symbol fill="#FFF" xmlns="http://www.w3.org/2000/svg" viewBox="0 0 200 22" id="kiko-loureiro">
    <rect x="60.918" y="5.01" width="1.851" height="12.4"></rect>
    <path d="M149.62 10.32l1.05 1.335c1.125-.97 1.562-1.698 1.562-3.223 0-.994-.458-1.893-1.294-2.557-.82-.65-1.92-.865-3.97-.865h-1.695v12.4h1.85v-4.913l.402-.17 3.493 5.084h2.253l-6.147-8.395v-2.26c1.053 0 1.836.027 2.393.263.69.292.904.86.904 1.585 0 .74-.21 1.23-.8 1.716z"></path>
    <rect x="168.99" y="5.01" width="1.851" height="12.4"></rect>
    <polygon points="164.181 6.861 164.181 5.01 157.428 5.01 157.428 17.409 164.181 17.409 164.181 15.558 159.279 15.558 159.279 11.576 164.181 11.576 164.181 9.725 159.279 9.725 159.279 6.861"></polygon>
    <polygon points="107.025 15.558 107.025 5.01 105.173 5.01 105.173 15.558 105.173 17.409 105.173 17.409 110.715 17.409 110.715 15.558"></polygon>
    <path d="M85.578 4.852c-3.51 0-6.357 2.846-6.357 6.357s2.847 6.356 6.358 6.356c3.51 0 6.357-2.846 6.357-6.357S89.09 4.85 85.578 4.85zm0 11.012c-2.57 0-4.654-2.084-4.654-4.654s2.084-4.654 4.654-4.654 4.654 2.084 4.654 4.654-2.084 4.654-4.654 4.654z"></path>
    <path d="M121.004 4.852c-3.51 0-6.357 2.846-6.357 6.357s2.846 6.356 6.357 6.356 6.357-2.846 6.357-6.357-2.845-6.358-6.356-6.358zm0 11.012c-2.57 0-4.654-2.084-4.654-4.654s2.084-4.654 4.654-4.654 4.654 2.084 4.654 4.654-2.084 4.654-4.654 4.654z"></path>
    <path d="M140.243 12.808c0 2.678-1.388 4.76-4.646 4.76-3.056 0-4.48-1.81-4.48-4.76V5.01h1.85v8.034c0 1.65.91 2.82 2.63 2.82 1.423 0 2.794-.83 2.794-2.82V5.01h1.852v7.798z"></path>
    <path d="M192.643 4.852c-3.51 0-6.357 2.846-6.357 6.357s2.846 6.356 6.357 6.356c3.51 0 6.357-2.846 6.357-6.357s-2.846-6.358-6.357-6.358zm0 11.012c-2.57 0-4.654-2.084-4.654-4.654s2.083-4.654 4.653-4.654c2.57 0 4.654 2.084 4.654 4.654s-2.084 4.654-4.654 4.654z"></path>
    <polygon points="49.031 5.01 47.179 5.01 47.179 17.409 49.031 17.409 49.031 12.165 49.332 11.874 53.785 17.409 56.359 17.409 49.031 8.56"></polygon>
    <polygon points="56.464 4.984 53.905 4.984 50.367 8.401 51.505 9.775"></polygon>
    <polygon points="69.376 5.01 67.525 5.01 67.525 17.409 69.376 17.409 69.376 12.165 69.677 11.874 74.13 17.409 76.705 17.409 69.376 8.56"></polygon>
    <polygon points="76.81 4.984 74.25 4.984 70.713 8.401 71.85 9.775"></polygon>
    <path d="M180.152 10.32l1.048 1.335c1.126-.97 1.563-1.698 1.563-3.223 0-.994-.458-1.893-1.294-2.557-.82-.65-1.92-.865-3.972-.865h-1.694v12.4h1.85v-4.913l.402-.17 3.493 5.084h2.252l-6.148-8.395v-2.26c1.053 0 1.836.027 2.393.263.69.292.904.86.904 1.585 0 .74-.21 1.23-.798 1.716z"></path>
    <path d="M27.874 20.798h9.466c.716 0 .723-.307.478-.65L29.72 8.818s3.44-6.4 3.71-6.88c.357-.638.305-.735-.13-.735h-8.87c-.27 0-.316.05-.462.29L19.654 8.56l-.692-1.286s2.662-5.032 2.884-5.408.263-.613-.236-.613h-9.89c-.432 0-.568.155-.766.523-1.69 3.152-9.768 18.215-9.863 18.45-.105.26-.182.467.142.467h10.12c.342 0 .522-.125.68-.42L13.35 17.8l1.835 2.998h10.48c.525 0 .46-.202.288-.525l-1.2-2.234.653-1.213 2.468 3.97zm4.15-19.177l-8.232 14.637-.346-.644 7.78-13.992h.8zm-1.307 0l-7.522 13.526-.522-.972 7.08-12.554h.964zm-1.416 0l-6.848 12.143-.437-.895 6.28-11.247H29.3zm-1.535 0l-6.023 10.824-.557-1.037 5.66-9.787h.92zm-1.403 0l-5.378 9.413-.488-.91 4.938-8.502h.928zm-1.98 0h.6l-4.708 8.094-.362-.673 4.47-7.42zM11.4 20.275H1.535l9.98-18.652h9.827l-9.94 18.652zm3.453-5.298l2.863 5.298h-.714l-2.567-4.513.418-.784zm.33-.62l.483-.906 3.726 6.824h-.94l-3.268-5.92zm.79-1.48l.398-.747 4.506 8.143h-.988l-3.917-7.398zm.683-1.28l.457-.858 5.233 9.535h-.99l-4.7-8.678zm-2.93 5.494l.277-.52 2.2 3.704h-.61L13.73 17.09zm9.162 3.184l-5.54-9.98.55-1.026 5.91 11.006h-.92zm2.4 0h-.89L18.137 8.82l.547-1.025 6.607 12.48zm-.858-2.828l-.445-.828L32.5 1.62h.51l-8.578 15.826z"></path>
    <path d="M13.914 20.588h-1.246c-.12 0-.198-.13-.14-.235l.623-1.15c.06-.11.22-.11.28 0l.624 1.15c.058.106-.02.235-.14.235z"></path>
  </symbol>
  <symbol fill="#FFF" version="1.1" id="Gibson_logo" xmlns="http://www.w3.org/2000/svg" xmlns:xlink="http://www.w3.org/1999/xlink" x="0px" y="0px" enable-background="new 0 0 300 190" xml:space="preserve" viewBox="0 0 300 190">
    <g>
      <g>
        <g>
          <g>
            <path d="M71.536,46.22c5.369,0,9.723-4.354,9.723-9.722s-4.354-9.721-9.723-9.721s-9.722,4.354-9.722,9.721
					S66.167,46.22,71.536,46.22"></path>
            <path d="M55.402,58.211c0,0,0-13.736,0-20.774c0-7.057-6.979-13.476-12.378-11.861c-5.367,1.634-27.915,8.521-28.84,8.934
					C13.262,34.939,1.48,39.482,1.48,52.375l0.178,83.776c0,0,0.508,8.427,9.276,8.258c0,0,2.565,0,6.68-2.233
					c0,0,10.141-5.555,10.827-5.855c0.655-0.281,6.174-2.046,6.352,5.498v47.05l16.643-5.331c0,0,0-40.367,0-41.719
					c0-2.833,2.059-16.854,9.275-22.651c0.447-0.376,3.938-2.627,7.038,1.539c3.131,4.167,5.846,4.804,5.846,4.804
					s3.369,1.482,6.354-3.603c0.178-0.356,5.428-9.046,5.666-9.44s1.014-1.558,3.25-1.369c0,0,5.519-0.357,4.652,7.375
					c0,0,25.53-7.751,27.647-8.934c0.327-0.131,10.08-4.034,15.956-13.043c0,0,1.759-2.59,3.965-2.402
					c0.388,0,5.817,0.338,4.267,7.545c0,0,24.753-7.563,26.125-8.238c2.923-1.201,10.647-4.411,10.47-13.382
					c0.089-2.665-0.627-7.318-4.475-10.659c-0.208-0.207-17.03-12.594-17.179-12.705c-1.462-1.239-2.207-4.055,0.178-7.038
					c0,0,1.879-2.74,4.652-2.571c0,0,2.089-0.094,5.311,4.129c0.416,0.413,2.802,3.604,4.473,3.941c0,0,1.371,0.45,3.072-1.201
					c4.176-3.622,6.353-3.772,6.353-3.772s6.024-1.726,6.024,5.142c0,0,0,13.082,0,14.432c0,3.154,4.145,12.818,13.57,12.35
					c0,0,3.25-0.338,6.353-1.201l10.11-3.246c0,0,12.734-3.828,17.178-12.029c0,0,2.117-4.111,5.159-4.111
					c0,0,5.309-0.693,4.802,7.377l14.435-4.805V29.197c0,0-0.416-4.128,4.444-4.128c4.802,0,4.652,3.771,4.652,3.771
					s0,70.621,0,72.122c0,2.027,2.118,8.332,9.096,8.238c0,0,19.565-0.168,19.565-16.834c0-1.238,0-6.344,0-6.344l-4.981,1.709
					v6.023c0,0,0.33,4.055-4.294,4.279c-0.418,0.094-4.951-0.075-4.802-4.467V5.326c0,0-0.357-4.129-4.475-4.129
					c0,0-3.757-0.338-6.68,4.823c-2.923,5.142-3.966,9.083-7.902,9.083c0,0-4.683,0.563-4.624-3.604V7.033l-14.792,4.823
					c0,0,0,16.365,0,16.984c0,4.223-3.161,25.167-8.738,25.241c-0.389,0.057-5.637,0.789-5.847-4.466c0,0,0-17.96,0-19.743
					c0.149-2.664-1.937-10.623-8.589-9.777l-5.993,1.201c0,0,0,41.418,0,42.752c0,1.313-0.479,7.619-7.577,7.899
					c-0.626,0.095-7.545-0.187-7.545-6.868V37.268c0,0-0.327-4.992,4.652-5.33l0.149-7.207c0,0-15.092,3.435-22.129,16.141
					c-0.834,0.9-2.594,1.707-3.788,1.707c-0.715,0-4.114-0.207-4.294-3.604c0-0.807,0-4.635,0-4.635l-24.902,8.238
					c0,0-9.783,3.098-9.783,13.063c0,0,0,6.868,4.295,10.115l17.357,13.062c0,0,2.953,2.103,1.521,5.669
					c-0.181,0.6-2.208,4.71-6.354,4.804c-0.806,0.093-3.43,0-4.981-3.96c0,0-1.371-5.143-5.815-3.604c0,0-8.351,2.928-8.946,3.097
					c-0.565,0.169-5.488,1.032-5.488-4.805c0,0,0-17.81,0-19.235c0-1.428-1.76-9.572-8.589-9.271c0,0-3.938,0.338-7.365,1.895v8.408
					c0,0,4.622-0.694,4.622,5.312v29.032c0,0,0.208,7.244-7.367,7.376c-6.354-0.075-7.396-6.137-7.396-6.869
					c-0.061-4.109,0.178-92.54,0.178-92.54L93.339,9.962l0.178,63.356c0,0-0.924,20.569-6.711,28.508
					c-1.668,2.271-7.545,2.271-8.052-2.76V66.45l-14.762,4.636c0,0,0,10.997,0,13.212s-2.059,28.45-9.604,28.075
					c-0.955,0.02-2.983-1.033-3.014-5.536l0.091-31.96l-14.435,5.142c0,0-0.149,17.565-0.18,18.542
					c-0.447,5.631,0.357,31.078-16.492,31.078c0,0-4.116,0.169-4.116-4.805V53.745c0,0,0.477-8.032,6.71-10.829
					c0,0,6.354-2.271,7.725-2.74c1.342-0.469,6.531,0,6.531,5.668v18.035L55.402,58.211"></path>
            <path d="M287.79,6.771c0-2.797,2.236-4.617,4.743-4.617c2.505,0,4.74,1.82,4.74,4.617c0,2.834-2.235,4.636-4.74,4.636
					C290.026,11.407,287.79,9.605,287.79,6.771 M292.533,3.13c-1.97,0-3.521,1.521-3.521,3.642c0,2.139,1.552,3.658,3.521,3.658
					c1.937,0,3.519-1.52,3.519-3.658C296.052,4.65,294.47,3.13,292.533,3.13z M291.696,9.361h-1.014v-5.18h1.97
					c1.282,0,1.997,0.412,1.997,1.538c0,0.938-0.567,1.313-1.252,1.389l1.252,2.253h-1.133l-1.163-2.215h-0.657V9.361z
					 M291.696,6.357h0.896c0.745,0,1.014-0.242,1.014-0.731c0-0.488-0.327-0.638-1.072-0.638h-0.837V6.357z"></path>
          </g>
        </g>
      </g>
    </g>
  </symbol>
  <symbol fill="#FFF" xmlns="http://www.w3.org/2000/svg" viewBox="0 0 200 200" id="arch-enemy_stigmata-symbol">
    <path d="M118.161 2C74.145 2 38.462 37.681 38.462 81.697c0 44.016 35.683 79.699 79.699 79.699s79.699-35.683 79.699-79.699S162.177 2 118.161 2zm-.503 150.121c-38.987 0-70.589-31.604-70.589-70.589s31.602-70.589 70.589-70.589c38.985 0 70.587 31.604 70.587 70.589s-31.602 70.589-70.587 70.589z"></path>
    <circle cx="117.826" cy="81.194" r="29.866"></circle>
    <polygon points="46.75 67.72 2.14 73.13 2.14 76.086 44.887 83.684"></polygon>
    <path d="M26.736 60.714L25.08 89.567l17.146 1.655 2.128-29.089-17.618-1.419zm14.072 25.542L29.722 85.4l1.508-19.719 10.731.887-1.153 19.688z"></path>
    <polygon points="47.307 109.258 15.797 141.655 17.039 143.725 56.416 123.149"></polygon>
    <path d="M30.099 114.017l15.263 24.581 12.697-7.957-13.98-25.465-13.98 8.841zm23.806 13.553l-7.428 4.856-10.438-16.786 6.77-4.374 11.096 16.304z"></path>
    <polygon points="78.101 141.655 64.457 184.284 68.027 185.477 91.799 148.691"></polygon>
    <path d="M63.866 155.13l25.181 14.034 7.89-15.312-26.23-12.755-6.841 14.033zm27.933-1.801l-4.902 9.98-16.877-10.477 3.918-7.869 17.861 8.366z"></path>
    <polygon points="120.277 153.864 128.375 198 131.978 197.292 135.676 153.828"></polygon>
    <path d="M114.359 175H143v-19.87l-28.694 2.449.053 17.421zm23.446-17.052l.226 11.117-19.301-.608-.107-9.763 19.182-.746z"></path>
  </symbol>
  <symbol fill="#FFF" xmlns="http://www.w3.org/2000/svg" viewBox="0 0 200 95" id="arctic-monkeys_am">
    <path d="M114.756 22.926s-6.587-5.916-10.352 0c-3.765 5.916-3.765 17.325 3.495 14.242 0 0 4.3-1.2 6.856-3.89v16.135s-11.88 6.386-21.646-2.958c0 0-9.41-10.636-.807-26.157 0 0 7.53-13.773 23.798-11.622l-1.344 14.25z"></path>
    <path d="M118.386 8.447l-1.21 12.06h5.916s-2.286 24.737-2.958 27.83v1.076l12.1-1.48s1.748-27.292 2.42-28.905l6.05-.27V5.314s-20.033 2.906-22.318 3.134z"></path>
    <path d="M143.394 5.313s-1.48 22.184-2.152 23.663c-.673 1.478-1.883 17.478-1.21 18.285l10.352-2.016s4.27-40.385 4.722-41.09l-11.712 1.16z"></path>
    <path d="M184.904 19.733s-6.05-7.664-12.202-1.412c-6.152 6.253.807 12.605 3.63 12.605s6.756-.605 8.572-2.32V42.22s-12.302 6.856-21.68-.91c0 0-13.613-9.175-5.143-27.426 0 0 7.26-16.74 27.328-9.73l-.504 15.58z"></path>
    <path d="M3.5 92.436h9.782l3.125-11.9s2.925 10.588 3.328 10.892c0 0 6.957-8.874 8.672-10.89l-1.21 11.393 9.377.506s-.403-30.452 0-30.957H30.12s-6.587 10.89-6.52 11.595c.067.706-2.454-8.27-2.655-10.184l-7.362-.2S4.407 90.72 3.5 92.435z"></path>
    <path d="M70.657 58.555s-1.412 16.536-2.522 18.402c-1.108 1.866-1.466 14.37-1.54 14.873-.073.505 10.212-.504 10.212-.504s.807-14.783 1.513-16.063c0 0 6.15 15.86 7.764 15.86s9.48-.502 9.48-.502.806-16.84 2.722-22.284c1.916-5.446 2.017-14.42 2.017-14.42H90.32s1.01 4.74-.403 9.48c-1.41 4.738-2.723 9.075-2.723 9.075l-5.546-16.738s-8.57 2.823-10.99 2.823z"></path>
    <path d="M102.39 53.916s-1.38 13.915-2.995 18.454c-1.613 4.537-1.714 18.15-1.714 18.15l10.588-.807.706-11.797 4.84 11.9 11.798-.506-8.437-18.857s9.445-12.612 11.764-18.91l-11.093.96s-5.647 11.094-6.554 12c0 0 1.41-7.865 1.11-11.293l-10.013.706z"></path>
    <path d="M130.956 50.89c-.4.056-1.916 16.74-2.924 21.48-1.01 4.74-1.01 15.226-.706 16.74h19.663l1.714-11.8h-10.777l.49-3.326 6.757-.303.303-10.184-6.353.202V60.37l8.974-.874-.627-11.126s-7.07 1.226-16.514 2.52z"></path>
    <path d="M149.208 48.37s5.646 20.618 7.06 22.66l-1.16 18.08h10.636l1.21-17.546s10.084-21.58 10.084-23.193h-11.092l-3.63 9.48-2.32-9.48h-10.788z"></path>
    <path d="M180.668 49.413s-6.396 3.498-6.543 11.653c-.102 5.64 2.913 10.336 8.056 12.615 2.544 1.128 3.224 1.67 3.224 3.087 0 2.255-6.25 1.854-9.072-2.885l-3.832 11.09s5.345 6.858 13.815 4.136c8.47-2.723 10.185-10.386 10.185-13.512 0-3.126-1.43-10.184-8.068-12.806-2.434-.962-3.715-1.8-3.024-3.43 1.41-3.327 5.647-.2 7.966 2.623l3.126-9.177s-6.152-8.3-15.832-3.393z"></path>
    <path d="M66.018 68.032s-3.025-8.503-11.697-8.536c0 0-6.15.975-10.587 5.21 0 0-9.983 9.578-4.336 21.376 0 0 7.26 12.1 19.16 3.227 0 0 10.587-5.748 7.46-21.278zm-11.395 12c-1.31 1.412-4.84 3.126-6.756-.705-1.915-3.83 2.22-7.966 2.22-7.966s3.528-3.932 6.15 0c2.622 3.934-.302 7.26-1.614 8.673z"></path>
    <path d="M82.623 37.984c7.125-8.336 7.125-16.67 4.302-20.435-2.823-3.765-7.663-3.093-12.503-1.077-4.84 2.017-11.428 2.42-11.294 3.764.135 1.344-4.302 34.553-4.302 34.553v-1.076s-1.613-14.79-2.823-17.747c-1.21-2.958-2.15-13.58-2.823-13.04-.672.537-12.1 2.554-12.37 2.957-.27.403-.807 6.99-6.857 15.46C27.903 49.817 23.6 59.497 23.6 59.497l13.04-.807c-.134-2.825 1.614-5.648 1.614-5.648l8.203-.27.403 5.244c8.47 1.883 24.2-2.554 24.2-2.554l.672-12.37c2.15 2.42 4.17 11.428 5.244 10.757 1.075-.673 13.982-2.69 13.982-2.69l-8.335-13.176zM46.32 43.63l-4.032.538 4.033-8.74v8.203zM77.65 29.36c-.94 2.802-5.11 3.65-5.11 3.65l.942-7.302c3.495-1.387 5.11.848 4.168 3.65z"></path>
  </symbol>
</svg>