<?xml version="1.0" encoding="UTF-8" standalone="no"?>
<svg
   xmlns:dc="http://purl.org/dc/elements/1.1/"
   xmlns:cc="http://creativecommons.org/ns#"
   xmlns:rdf="http://www.w3.org/1999/02/22-rdf-syntax-ns#"
   xmlns:svg="http://www.w3.org/2000/svg"
   xmlns="http://www.w3.org/2000/svg"
   xmlns:sodipodi="http://sodipodi.sourceforge.net/DTD/sodipodi-0.dtd"
   xmlns:inkscape="http://www.inkscape.org/namespaces/inkscape"
   width="300"
   height="100"
   viewBox="0 0 973 324"
   version="1.0"
   id="svg2"
   sodipodi:version="0.32"
   inkscape:version="0.46"
   sodipodi:docname="Epiphone Logo.svg"
   inkscape:output_extension="org.inkscape.output.svg.inkscape">
  <metadata
     id="metadata13">
    <rdf:RDF>
      <cc:Work
         rdf:about="">
        <dc:format>image/svg+xml</dc:format>
        <dc:type
           rdf:resource="http://purl.org/dc/dcmitype/StillImage" />
      </cc:Work>
    </rdf:RDF>
  </metadata>
  <defs
     id="defs11">
    <inkscape:perspective
       sodipodi:type="inkscape:persp3d"
       inkscape:vp_x="0 : 202.5 : 1"
       inkscape:vp_y="0 : 1000 : 0"
       inkscape:vp_z="1216.25 : 202.5 : 1"
       inkscape:persp3d-origin="608.125 : 135 : 1"
       id="perspective15" />
  </defs>
  <sodipodi:namedview
     inkscape:window-height="669"
     inkscape:window-width="640"
     inkscape:pageshadow="2"
     inkscape:pageopacity="0.0"
     guidetolerance="10.0"
     gridtolerance="10.0"
     objecttolerance="10.0"
     borderopacity="1.0"
     bordercolor="#666666"
     pagecolor="#ffffff"
     id="base"
     showgrid="false"
     inkscape:zoom="0.44727646"
     inkscape:cx="608.125"
     inkscape:cy="202.5"
     inkscape:window-x="161"
     inkscape:window-y="95"
     inkscape:current-layer="svg2" />
  <g
     id="#ffffffff" />
  <g
     id="#010101ff">
    <path
       d="M 592.5,0 L 611.42,0 C 614.16,0.25 616.91,0.4 619.66,0.62 C 614.9,19.36 608.83,37.74 603.28,56.26 C 596.61,77.79 589.95,99.31 582.93,120.73 C 590.31,117.16 597.89,114 605.72,111.54 C 614.54,108.8 623.55,105.47 632.95,106.45 C 635.55,106.25 637.93,108.05 638.77,110.47 C 641.7,117.41 639.59,124.94 639.23,132.12 C 646.6,130.43 650.58,123.53 655.67,118.65 C 663.6,111.73 673.61,107.18 684.02,105.65 C 691.32,105.02 699.41,105.15 705.63,109.49 C 707.13,111.63 706.63,115 705.03,117.03 C 699.9,119.39 693.8,118.89 688.9,121.87 C 687.15,123.51 686.92,126.11 686.12,128.25 C 680.1,148.35 673.73,168.37 668.5,188.69 C 667.14,192.61 668.63,198.04 673.08,199.03 C 677.81,199.21 682.71,199.67 687.36,198.54 C 691.23,195.28 692.87,190.23 694.96,185.78 C 702.72,164.67 707.35,142.6 712.62,120.78 C 713.25,118.31 713.7,115.8 714.04,113.28 C 712.25,112.04 710.41,110.66 710,108.38 C 715.43,105.17 722.11,104.36 728.18,105.96 C 732.54,107.53 736.31,110.32 740,113.07 C 742.76,115.04 743.69,118.84 742.99,122.05 C 740.33,139.35 733.97,155.82 730.77,173 C 730.17,175.99 733.97,175.88 735.96,175.76 C 745.21,174.8 753.89,170.64 761.46,165.39 C 764.3,163.7 765.3,160.42 766.25,157.47 C 770.12,144.33 773.14,130.97 776.6,117.72 C 777.59,113.88 778.79,110.09 780.45,106.49 C 790.06,105.01 800.04,104.77 809.62,106.58 C 809.53,112 806.51,116.64 805.05,121.71 C 812.36,120.37 818.71,116.32 825.51,113.57 C 833.73,110.14 842.32,106.11 851.47,107.2 C 856.09,107.38 860.89,110.4 861.8,115.18 C 863.71,122.07 860.08,128.6 858.95,135.25 C 864.33,134.92 870.01,132.72 873.36,128.34 C 876.44,121.76 877.52,114.02 882.54,108.48 C 884.1,106.58 886.67,106.43 888.92,106.07 C 900.21,104.57 911.62,104.26 923,104.31 C 935.86,104.28 948.77,104.27 961.56,105.86 C 964.12,106.2 967.1,107.19 967.84,110.01 C 969.39,115.03 968.74,120.49 967.27,125.46 C 963.71,138.11 960.7,150.94 956.45,163.39 C 955.8,164.65 955.55,166.76 953.81,166.91 C 944.61,168.28 935.28,168.28 926,168.4 C 916.89,168.57 907.75,167.65 898.68,168.74 C 894.78,176.68 891.85,185.18 890.72,193.98 C 890.47,197.25 890.5,201.83 894.12,203.29 C 901.59,205.36 909.74,204.19 916.6,200.68 C 921.62,198.19 925.36,193.87 929.09,189.81 C 935.29,189.75 941.51,189.31 947.7,189.94 C 946.61,196.25 943.83,202.13 940.49,207.54 C 939.06,209.62 937.61,211.85 935.42,213.18 C 930.01,214.26 924.46,214.06 918.98,214.25 C 901.29,214.37 883.54,214.61 865.92,212.85 C 861.91,212.62 857.61,210.91 855.94,206.98 C 853.84,201.5 854.8,195.43 855.87,189.82 C 859.55,175.7 865.63,162.32 869.16,148.15 C 869.59,146.38 869.76,144.56 869.94,142.75 C 864.05,145.71 858.44,149.42 853.29,153.5 C 849.51,163.32 846.9,173.59 843.54,183.58 C 832.3,219.37 821.13,255.19 809.91,290.99 C 809.28,292.75 809.29,294.63 809.35,296.48 C 811.14,297.05 813.01,298.05 814.94,297.36 C 817.44,297.05 818.42,294.52 819.51,292.61 C 821.24,289.48 822.49,286.11 823.92,282.84 C 828.49,281.79 833.39,282.65 838.09,282.47 C 837.52,286.79 835.27,290.59 833.33,294.4 C 829.22,301.84 824.93,309.2 820.06,316.17 C 818.68,318.07 817.36,320.1 815.46,321.52 C 811.67,323.26 807.39,323.29 803.35,324 L 786.54,324 C 780.72,323.48 774.87,323.14 769.14,321.92 C 769.6,316.64 771.26,311.58 772.66,306.5 C 787.31,256.52 804.12,207.22 819.24,157.39 C 820.52,152.01 823.03,146.81 822.88,141.18 C 818.7,140.03 814.48,141.42 810.48,142.6 C 806.21,144.09 801.89,145.67 798.07,148.14 C 796.34,149.19 795.79,151.27 795.09,153.03 C 789.62,170.89 785.46,189.14 779.85,206.96 C 778.85,209.02 778.52,212.4 775.68,212.64 C 767.08,214.39 757.92,214.76 749.46,212.14 C 750.35,201.28 755.12,191.3 757.98,180.9 C 748.01,187.06 736.41,190.42 724.72,190.86 C 721.52,196.98 720.8,205.65 713.69,208.68 C 705.4,212.58 695.94,212.02 687.02,212.67 C 674.68,213.7 662.34,212.57 649.99,212.35 C 647.56,212.23 644.52,212.25 643.18,209.81 C 639.9,204.54 636.28,198.57 637.44,192.09 C 638.84,182.58 641.93,173.43 644.31,164.14 C 646.18,156.82 648.74,149.59 649.3,142.01 C 644.97,146.32 639.83,150.13 633.5,150.57 C 625.61,170.73 621.48,192.16 613.66,212.35 C 602.32,213.91 590.66,214.01 579.36,212.15 C 579.53,204.84 581.85,197.84 583.73,190.84 C 587.59,176.47 592.15,162.29 595.81,147.87 C 597.04,143.18 598.36,138.45 598.31,133.57 C 592.77,133.98 587.55,136.1 582.72,138.71 C 579.4,140.61 575.9,142.94 574.61,146.76 C 569.65,160.13 566.56,174.09 562.49,187.74 C 560.27,195.03 558.54,202.51 555.37,209.47 C 554.5,212.1 551.41,212.21 549.11,212.53 C 540.73,213.44 532.16,213.76 523.84,212.18 C 524.88,202.06 530.17,192.89 531.02,182.73 C 522.35,186.04 513.81,190.92 504.22,190.51 C 502.15,196.78 500.23,203.59 495.16,208.16 C 490.48,212.29 483.93,212.85 477.99,213.18 C 467.26,213.38 456.55,212.56 445.83,212.51 C 444.72,214.91 443.72,217.36 442.97,219.9 C 435.19,244.8 428.34,269.97 420.91,294.98 C 418.08,303.81 415.73,312.8 412.27,321.42 C 400.82,322.94 389.16,322.71 377.64,322.16 C 378.94,311.88 382.57,302.09 385.26,292.13 C 398.37,247.91 413.3,204.26 426.57,160.09 C 410.13,176.92 392.64,193 372.77,205.73 C 367.47,208.83 361.67,212.62 355.23,211.57 C 351.82,210.87 347.39,209.28 347.48,205.06 C 347.46,197.18 350.65,189.79 352.9,182.37 C 344.58,186.49 335.76,190.77 326.24,190.49 C 323.77,197.97 321.09,206.72 313.36,210.35 C 305.07,213.86 295.77,212.92 287,212.67 C 280.3,212.67 273.6,212.11 266.91,212.44 C 265.11,213.99 264.71,216.55 263.82,218.65 C 252.73,252.64 244.18,287.4 233.46,321.5 C 225.04,322.78 216.48,322.38 208,322.56 C 204.52,322.39 200.91,322.87 197.54,321.88 C 197.35,318.34 198.85,314.98 199.67,311.6 C 208.9,280.57 219.49,249.97 229.41,219.16 C 231.19,213.11 233.29,207.15 234.79,201.01 C 209.69,208.99 184.3,216.68 158.05,219.78 C 136.85,222.41 114.69,222.22 94.42,214.77 C 84.09,210.96 74.72,204.78 66.61,197.39 C 51.35,181.13 46.61,158.36 43.33,137.03 C 42.32,132.24 42.85,126.88 40.37,122.54 C 35.95,120.43 30.78,120.98 26,120.83 C 17.33,120.94 8.67,120.51 0,120.67 L 0,118.43 C 1.35,114.23 2.81,109.91 5.9,106.64 C 13.6,106.73 21.3,106.42 29,106.55 C 33.89,106.38 39.18,107.24 43.62,104.65 C 46.74,103.22 47.41,99.58 48.7,96.76 C 56.27,79.08 65.7,62 78.38,47.43 C 89.75,33.74 104.27,22.57 120.72,15.69 C 138.11,8.31 157.35,6.96 176.02,7.7 C 206.63,10.38 235.65,23.64 259.96,42.07 C 256.4,46.8 251.69,50.48 246.91,53.88 C 244.88,55.16 242.74,56.65 240.25,56.68 C 238.55,56.27 237.14,55.17 235.65,54.32 C 227.63,49.11 218.72,45.49 210.59,40.46 C 191.48,29.24 167.89,24.24 146.27,30.41 C 134.17,33.56 124.61,42.43 116.83,51.82 C 105.96,65.34 97.68,80.97 92.74,97.61 C 91.18,101.43 93.95,106.3 98.09,106.53 C 145.67,106.65 193.26,106.39 240.84,106.66 C 238.04,111.47 235.15,116.26 231.78,120.71 C 187.16,120.61 142.55,120.7 97.93,120.66 C 93.86,120.3 91.09,124.12 89.36,127.3 C 86.04,135.64 87.66,145.31 92.04,152.96 C 101.4,170.96 117.41,185.51 136.54,192.46 C 160.88,201.56 188.19,200.37 212.81,192.95 C 221.95,190.37 230.68,186.5 239.01,181.97 C 242.05,180.48 241.76,176.6 242.75,173.84 C 247.8,155.59 253.58,137.53 259.92,119.69 C 261.66,115.58 262.64,111 265.41,107.43 C 268.02,106.06 271.12,106.5 273.97,106.23 C 281.97,106.21 290.06,106.09 297.95,107.62 C 298.01,113.06 295.82,118.14 294.46,123.32 C 287.57,146.67 279.64,169.71 273.05,193.16 C 272.32,195.67 271.86,198.26 271.68,200.88 C 276.82,201.42 282.39,202.58 287.29,200.35 C 289.5,197.19 290.24,193.28 291.56,189.71 C 299.11,164.98 305.43,139.89 312.02,114.9 C 313.24,111.01 310.3,107.9 307.48,105.74 C 313.92,101.91 321.77,102.33 329,102.14 C 332.15,102.33 335.81,101.43 338.48,103.62 C 342.18,106.4 344.34,111.31 343.18,115.91 C 340.18,133.97 334.73,151.51 330.49,169.3 C 330.23,170.73 330.15,172.18 330.07,173.64 C 332.88,174.56 335.83,175.85 338.83,175.01 C 345.96,173.54 351.01,167.78 355.43,162.42 C 359.13,158.26 359.48,152.45 361.09,147.35 C 364.54,135.27 367.73,123.08 372.38,111.39 C 373.35,109.61 373.91,106.74 376.38,106.62 C 385.48,104.94 394.82,105.35 404.02,105.73 C 405.37,106.12 407.5,105.68 408.2,107.2 C 407.61,113.54 405.46,119.61 403.75,125.71 C 400.62,136.01 397.53,146.33 394.64,156.71 C 393.71,159.92 393.19,163.24 393.05,166.59 C 395.16,165.63 397.17,164.46 399.01,163.05 C 409.39,155.15 419.3,146.65 429.37,138.35 C 431.13,136.83 433.22,135.37 433.97,133.04 C 436.72,125.57 438.36,117.73 441.44,110.37 C 442.08,108.9 442.93,107.26 444.67,106.91 C 449.99,105.53 455.54,105.55 461.01,105.49 C 466.61,105.53 472.3,105.26 477.79,106.66 C 477.35,109.44 476.79,112.19 475.97,114.88 C 469.18,137.85 461.23,160.45 454.09,183.31 C 452.39,189.09 450.29,194.8 449.64,200.82 C 454.9,201.6 460.38,202.23 465.54,200.53 C 469.11,192.84 470.94,184.51 473.56,176.48 C 479.21,156.03 484.78,135.54 489.97,114.97 C 491.38,111.12 488.21,108.13 485.68,105.77 C 489.54,103.07 494.35,102.72 498.9,102.35 C 503.85,102.16 508.86,101.87 513.8,102.35 C 519.2,104.14 522.65,110.48 521.29,116.01 C 518.66,130.77 514.64,145.23 510.91,159.73 C 509.77,164.3 508.15,168.82 508.06,173.58 C 511.62,175.02 515.64,176.07 519.32,174.33 C 526.66,171.26 532.19,164.82 536.22,158.15 C 543.01,139.68 548.91,120.89 555.22,102.24 C 566.1,68.65 577.56,35.23 587.66,1.4 C 588.99,0.3 590.88,0.41 592.5,0 M 911.32,126.01 C 908.73,135.18 903.1,143.94 904.52,153.82 C 904.89,155.26 905.22,157.6 907.16,157.56 C 911.98,158.08 916.83,157.61 921.67,157.54 C 924.45,150.69 926.25,143.5 928.19,136.39 C 929.07,132.4 930.62,128.53 930.73,124.41 C 926.71,122.62 922.21,123.33 917.95,123.07 C 915.55,123.26 911.75,122.76 911.32,126.01 z"
       id="path6"
       style="opacity:1;fill:#010101" />
    <path
       d="M 395.48,23.69 C 408.22,18.73 424.17,27.22 426.4,40.89 C 429.86,54.5 418.21,69.6 404.02,68.85 C 391.41,70.07 379.77,58.48 380.16,46 C 379.69,36.27 386.34,26.88 395.48,23.69 z"
       id="path8"
       style="opacity:1;fill:#010101" />
  </g>
</svg>
